<svg width="86" height="48" viewBox="0 0 86 48" fill="none" xmlns="http://www.w3.org/2000/svg">
<path fill-rule="evenodd" clip-rule="evenodd" d="M48.7165 47.9993C48.7577 47.9998 48.799 48 48.8403 48C54.7275 48 59.5 43.1939 59.5 37.2653C59.5 31.3367 54.7275 26.5306 48.8403 26.5306C48.799 26.5306 48.7577 26.5309 48.7165 26.5313V26.5306H45.9624C46.0619 25.796 46.1133 25.0459 46.1133 24.2838C46.1133 15.1841 38.788 7.80731 29.7519 7.80731C20.7158 7.80731 13.3906 15.1841 13.3906 24.2838C13.3906 25.1424 13.4558 25.9857 13.5815 26.8089C12.8035 26.6269 11.9927 26.5306 11.1597 26.5306C5.27249 26.5306 0.5 31.3367 0.5 37.2653C0.5 43.1939 5.27249 48 11.1597 48C11.2013 48 11.2428 47.9998 11.2843 47.9993L11.2837 48H48.7165V47.9993Z" fill="url(#paint0_linear_122_1429)"/>
<path fill-rule="evenodd" clip-rule="evenodd" d="M76.1933 34.6884C76.2289 34.6888 76.2645 34.689 76.3001 34.689C81.3812 34.689 85.5001 30.5411 85.5001 25.4243C85.5001 20.3075 81.3812 16.1595 76.3001 16.1595C76.2645 16.1595 76.2289 16.1597 76.1933 16.1601V16.1595H73.8165C73.9023 15.5255 73.9467 14.8781 73.9467 14.2204C73.9467 6.36667 67.6245 0 59.8257 0C52.0269 0 45.7047 6.36667 45.7047 14.2204C45.7047 14.9614 45.761 15.6892 45.8695 16.3997C45.198 16.2426 44.4982 16.1595 43.7791 16.1595C38.6981 16.1595 34.5791 20.3075 34.5791 25.4243C34.5791 30.5411 38.6981 34.689 43.7791 34.689C43.815 34.689 43.8509 34.6888 43.8867 34.6884L43.8862 34.689H76.1933V34.6884Z" fill="url(#paint1_linear_122_1429)"/>
<defs>
<linearGradient id="paint0_linear_122_1429" x1="51" y1="21.5" x2="-5.5" y2="49.5" gradientUnits="userSpaceOnUse">
<stop stop-color="#3D3D3D"/>
<stop offset="0.685417" stop-color="#9F9F9F"/>
<stop offset="1" stop-color="white"/>
</linearGradient>
<linearGradient id="paint1_linear_122_1429" x1="40.5" y1="-7.5" x2="67" y2="37.5" gradientUnits="userSpaceOnUse">
<stop stop-color="white"/>
<stop offset="1" stop-color="#4D4D4D"/>
</linearGradient>
</defs>
</svg>
