<svg width="86" height="48" viewBox="0 0 86 48" fill="none" xmlns="http://www.w3.org/2000/svg">
<mask id="path-1-inside-1_122_1429" fill="white">
<path fill-rule="evenodd" clip-rule="evenodd" d="M48.7165 47.9993C48.7577 47.9998 48.799 48 48.8403 48C54.7275 48 59.5 43.1939 59.5 37.2653C59.5 31.3367 54.7275 26.5306 48.8403 26.5306C48.799 26.5306 48.7577 26.5309 48.7165 26.5313V26.5306H45.9624C46.0619 25.796 46.1133 25.0459 46.1133 24.2838C46.1133 15.1841 38.788 7.80731 29.7519 7.80731C20.7158 7.80731 13.3906 15.1841 13.3906 24.2838C13.3906 25.1424 13.4558 25.9857 13.5815 26.8089C12.8035 26.6269 11.9927 26.5306 11.1597 26.5306C5.27249 26.5306 0.5 31.3367 0.5 37.2653C0.5 43.1939 5.27249 48 11.1597 48C11.2013 48 11.2428 47.9998 11.2843 47.9993L11.2837 48H48.7165V47.9993Z"/>
</mask>
<path fill-rule="evenodd" clip-rule="evenodd" d="M48.7165 47.9993C48.7577 47.9998 48.799 48 48.8403 48C54.7275 48 59.5 43.1939 59.5 37.2653C59.5 31.3367 54.7275 26.5306 48.8403 26.5306C48.799 26.5306 48.7577 26.5309 48.7165 26.5313V26.5306H45.9624C46.0619 25.796 46.1133 25.0459 46.1133 24.2838C46.1133 15.1841 38.788 7.80731 29.7519 7.80731C20.7158 7.80731 13.3906 15.1841 13.3906 24.2838C13.3906 25.1424 13.4558 25.9857 13.5815 26.8089C12.8035 26.6269 11.9927 26.5306 11.1597 26.5306C5.27249 26.5306 0.5 31.3367 0.5 37.2653C0.5 43.1939 5.27249 48 11.1597 48C11.2013 48 11.2428 47.9998 11.2843 47.9993L11.2837 48H48.7165V47.9993Z" fill="url(#paint0_linear_122_1429)"/>
<path d="M48.7165 47.9993L48.7394 45.9994C48.205 45.9933 47.6904 46.2013 47.3104 46.577C46.9303 46.9527 46.7165 47.4649 46.7165 47.9993H48.7165ZM48.7165 26.5313H46.7165C46.7165 27.0658 46.9303 27.5779 47.3104 27.9536C47.6904 28.3294 48.205 28.5373 48.7394 28.5312L48.7165 26.5313ZM48.7165 26.5306H50.7165C50.7165 25.4261 49.821 24.5306 48.7165 24.5306V26.5306ZM45.9624 26.5306L43.9805 26.2623C43.903 26.8343 44.0765 27.4119 44.4563 27.8466C44.8361 28.2812 45.3852 28.5306 45.9624 28.5306V26.5306ZM13.5815 26.8089L13.1259 28.7563C13.7724 28.9076 14.4518 28.7281 14.9393 28.2774C15.4268 27.8266 15.6588 27.1633 15.5586 26.507L13.5815 26.8089ZM11.2843 47.9993L12.8578 49.2338C13.3328 48.6284 13.4183 47.8041 13.0777 47.1141C12.7371 46.424 12.0307 45.9906 11.2613 45.9994L11.2843 47.9993ZM11.2837 48L9.71018 46.7655C9.23773 47.3676 9.15039 48.1866 9.48521 48.8749C9.82003 49.5632 10.5183 50 11.2837 50V48ZM48.7165 48V50C49.821 50 50.7165 49.1046 50.7165 48H48.7165ZM48.6935 49.9992C48.7424 49.9997 48.7914 50 48.8403 50V46C48.8066 46 48.773 45.9998 48.7394 45.9994L48.6935 49.9992ZM48.8403 50C55.8453 50 61.5 44.2852 61.5 37.2653H57.5C57.5 42.1026 53.6097 46 48.8403 46V50ZM61.5 37.2653C61.5 30.2454 55.8453 24.5306 48.8403 24.5306V28.5306C53.6097 28.5306 57.5 32.428 57.5 37.2653H61.5ZM48.8403 24.5306C48.7914 24.5306 48.7424 24.5309 48.6935 24.5315L48.7394 28.5312C48.773 28.5308 48.8066 28.5306 48.8403 28.5306V24.5306ZM46.7165 26.5306V26.5313H50.7165V26.5306H46.7165ZM45.9624 28.5306H48.7165V24.5306H45.9624V28.5306ZM47.9443 26.799C48.0558 25.9756 48.1133 25.1359 48.1133 24.2838H44.1133C44.1133 24.9559 44.068 25.6163 43.9805 26.2623L47.9443 26.799ZM48.1133 24.2838C48.1133 14.0928 39.9058 5.80731 29.7519 5.80731V9.80731C37.6703 9.80731 44.1133 16.2754 44.1133 24.2838H48.1133ZM29.7519 5.80731C19.598 5.80731 11.3906 14.0928 11.3906 24.2838H15.3906C15.3906 16.2754 21.8336 9.80731 29.7519 9.80731V5.80731ZM11.3906 24.2838C11.3906 25.2438 11.4635 26.1881 11.6044 27.1108L15.5586 26.507C15.4481 25.7834 15.3906 25.041 15.3906 24.2838H11.3906ZM14.0371 24.8615C13.1108 24.6448 12.1472 24.5306 11.1597 24.5306V28.5306C11.8382 28.5306 12.4961 28.609 13.1259 28.7563L14.0371 24.8615ZM11.1597 24.5306C4.15472 24.5306 -1.5 30.2454 -1.5 37.2653H2.5C2.5 32.428 6.39026 28.5306 11.1597 28.5306V24.5306ZM-1.5 37.2653C-1.5 44.2852 4.15472 50 11.1597 50V46C6.39026 46 2.5 42.1026 2.5 37.2653H-1.5ZM11.1597 50C11.209 50 11.2582 49.9997 11.3072 49.9992L11.2613 45.9994C11.2274 45.9998 11.1935 46 11.1597 46V50ZM12.8572 49.2345L12.8578 49.2338L9.71075 46.7648L9.71018 46.7655L12.8572 49.2345ZM48.7165 46H11.2837V50H48.7165V46ZM46.7165 47.9993V48H50.7165V47.9993H46.7165Z" fill="url(#paint1_linear_122_1429)" mask="url(#path-1-inside-1_122_1429)"/>
<mask id="path-3-inside-2_122_1429" fill="white">
<path fill-rule="evenodd" clip-rule="evenodd" d="M76.1933 34.6884C76.2289 34.6888 76.2645 34.689 76.3001 34.689C81.3812 34.689 85.5001 30.5411 85.5001 25.4243C85.5001 20.3075 81.3812 16.1595 76.3001 16.1595C76.2645 16.1595 76.2289 16.1597 76.1933 16.1601V16.1595H73.8165C73.9023 15.5255 73.9467 14.8781 73.9467 14.2204C73.9467 6.36667 67.6245 0 59.8257 0C52.0269 0 45.7047 6.36667 45.7047 14.2204C45.7047 14.9614 45.761 15.6892 45.8695 16.3997C45.198 16.2426 44.4982 16.1595 43.7791 16.1595C38.6981 16.1595 34.5791 20.3075 34.5791 25.4243C34.5791 30.5411 38.6981 34.689 43.7791 34.689C43.815 34.689 43.8509 34.6888 43.8867 34.6884L43.8862 34.689H76.1933V34.6884Z"/>
</mask>
<path fill-rule="evenodd" clip-rule="evenodd" d="M76.1933 34.6884C76.2289 34.6888 76.2645 34.689 76.3001 34.689C81.3812 34.689 85.5001 30.5411 85.5001 25.4243C85.5001 20.3075 81.3812 16.1595 76.3001 16.1595C76.2645 16.1595 76.2289 16.1597 76.1933 16.1601V16.1595H73.8165C73.9023 15.5255 73.9467 14.8781 73.9467 14.2204C73.9467 6.36667 67.6245 0 59.8257 0C52.0269 0 45.7047 6.36667 45.7047 14.2204C45.7047 14.9614 45.761 15.6892 45.8695 16.3997C45.198 16.2426 44.4982 16.1595 43.7791 16.1595C38.6981 16.1595 34.5791 20.3075 34.5791 25.4243C34.5791 30.5411 38.6981 34.689 43.7791 34.689C43.815 34.689 43.8509 34.6888 43.8867 34.6884L43.8862 34.689H76.1933V34.6884Z" fill="url(#paint2_linear_122_1429)"/>
<path d="M76.1933 34.6884L76.2163 32.6886C75.6819 32.6824 75.1673 32.8904 74.7872 33.2661C74.4072 33.6418 74.1933 34.154 74.1933 34.6884H76.1933ZM76.1933 16.1601H74.1933C74.1933 16.6945 74.4072 17.2067 74.7872 17.5824C75.1673 17.9581 75.6819 18.1661 76.2163 18.16L76.1933 16.1601ZM76.1933 16.1595H78.1933C78.1933 15.0549 77.2979 14.1595 76.1933 14.1595V16.1595ZM73.8165 16.1595L71.8346 15.8911C71.7571 16.4632 71.9306 17.0407 72.3104 17.4754C72.6902 17.9101 73.2393 18.1595 73.8165 18.1595V16.1595ZM45.8695 16.3997L45.4139 18.3471C46.0604 18.4984 46.7398 18.3189 47.2273 17.8682C47.7148 17.4174 47.9468 16.7541 47.8466 16.0978L45.8695 16.3997ZM43.8867 34.6884L45.462 35.9206C45.9358 35.3149 46.0204 34.4912 45.6795 33.8019C45.3386 33.1125 44.6327 32.6797 43.8637 32.6886L43.8867 34.6884ZM43.8862 34.689L42.3109 33.4568C41.8397 34.0593 41.7533 34.8777 42.0884 35.5653C42.4235 36.2528 43.1214 36.689 43.8862 36.689V34.689ZM76.1933 34.689V36.689C77.2979 36.689 78.1933 35.7936 78.1933 34.689H76.1933ZM76.1703 36.6883C76.2136 36.6888 76.2569 36.689 76.3001 36.689V32.689C76.272 32.689 76.2441 32.6889 76.2163 32.6886L76.1703 36.6883ZM76.3001 36.689C82.4989 36.689 87.5001 31.6324 87.5001 25.4243H83.5001C83.5001 29.4497 80.2634 32.689 76.3001 32.689V36.689ZM87.5001 25.4243C87.5001 19.2162 82.4989 14.1595 76.3001 14.1595V18.1595C80.2634 18.1595 83.5001 21.3988 83.5001 25.4243H87.5001ZM76.3001 14.1595C76.2568 14.1595 76.2136 14.1597 76.1703 14.1602L76.2163 18.16C76.2441 18.1597 76.2721 18.1595 76.3001 18.1595V14.1595ZM74.1933 16.1595V16.1601H78.1933V16.1595H74.1933ZM73.8165 18.1595H76.1933V14.1595H73.8165V18.1595ZM75.7984 16.4278C75.8962 15.7051 75.9467 14.9681 75.9467 14.2204H71.9467C71.9467 14.7881 71.9084 15.3458 71.8346 15.8911L75.7984 16.4278ZM75.9467 14.2204C75.9467 5.27535 68.7423 -2 59.8257 -2V2C66.5067 2 71.9467 7.45799 71.9467 14.2204H75.9467ZM59.8257 -2C50.9091 -2 43.7047 5.27535 43.7047 14.2204H47.7047C47.7047 7.45799 53.1447 2 59.8257 2V-2ZM43.7047 14.2204C43.7047 15.0628 43.7687 15.8916 43.8925 16.7016L47.8466 16.0978C47.7533 15.4869 47.7047 14.86 47.7047 14.2204H43.7047ZM46.3252 14.4523C45.5054 14.2605 44.6527 14.1595 43.7791 14.1595V18.1595C44.3436 18.1595 44.8906 18.2247 45.4139 18.3471L46.3252 14.4523ZM43.7791 14.1595C37.5803 14.1595 32.5791 19.2162 32.5791 25.4243H36.5791C36.5791 21.3988 39.8159 18.1595 43.7791 18.1595V14.1595ZM32.5791 25.4243C32.5791 31.6324 37.5803 36.689 43.7791 36.689V32.689C39.8159 32.689 36.5791 29.4497 36.5791 25.4243H32.5791ZM43.7791 36.689C43.8228 36.689 43.8664 36.6888 43.9097 36.6883L43.8637 32.6886C43.8354 32.6889 43.8072 32.689 43.7791 32.689V36.689ZM45.4615 35.9213L45.462 35.9206L42.3114 33.4562L42.3109 33.4568L45.4615 35.9213ZM76.1933 32.689H43.8862V36.689H76.1933V32.689ZM74.1933 34.6884V34.689H78.1933V34.6884H74.1933Z" fill="url(#paint3_linear_122_1429)" mask="url(#path-3-inside-2_122_1429)"/>
<defs>
<linearGradient id="paint0_linear_122_1429" x1="30" y1="-5.04936" x2="30" y2="53.617" gradientUnits="userSpaceOnUse">
<stop stop-color="white"/>
<stop offset="1" stop-color="white" stop-opacity="0"/>
</linearGradient>
<linearGradient id="paint1_linear_122_1429" x1="30" y1="7.80731" x2="30" y2="48" gradientUnits="userSpaceOnUse">
<stop stop-color="white"/>
<stop offset="1" stop-color="white" stop-opacity="0"/>
</linearGradient>
<linearGradient id="paint2_linear_122_1429" x1="62.4081" y1="1.04348" x2="62.4081" y2="38.6086" gradientUnits="userSpaceOnUse">
<stop stop-color="white"/>
<stop offset="1" stop-color="white" stop-opacity="0"/>
</linearGradient>
<linearGradient id="paint3_linear_122_1429" x1="60.0396" y1="0" x2="60.0396" y2="34.689" gradientUnits="userSpaceOnUse">
<stop stop-color="white"/>
<stop offset="1" stop-color="white" stop-opacity="0"/>
</linearGradient>
</defs>
</svg>
