<svg width="24" height="29" viewBox="0 0 24 29" fill="none" xmlns="http://www.w3.org/2000/svg">
<path d="M12 15.956C14.2782 15.956 16.125 14.2291 16.125 12.0988C16.125 9.9686 14.2782 8.2417 12 8.2417C9.72183 8.2417 7.875 9.9686 7.875 12.0988C7.875 14.2291 9.72183 15.956 12 15.956Z" stroke="#1F2E54" stroke-width="2" stroke-linecap="round" stroke-linejoin="round"/>
<path d="M12 1.81323C9.08262 1.81323 6.28473 2.8969 4.22183 4.82585C2.15893 6.75479 1 9.37101 1 12.0989C1 14.5315 1.55275 16.1232 3.0625 17.8847L12 27.5275L20.9375 17.8847C22.4473 16.1232 23 14.5315 23 12.0989C23 9.37101 21.8411 6.75479 19.7782 4.82585C17.7153 2.8969 14.9174 1.81323 12 1.81323V1.81323Z" stroke="#1F2E54" stroke-width="2" stroke-linecap="round" stroke-linejoin="round"/>
</svg>
