<svg width="186" height="34" viewBox="0 0 186 34" fill="none" xmlns="http://www.w3.org/2000/svg">
<path d="M23.6307 22.2074L23.6207 17.8622H24.1974L29.6861 11.7273H33.892L27.1406 19.2443H26.3949L23.6307 22.2074ZM20.3494 27V6.63636H23.9489V27H20.3494ZM29.9347 27L24.9631 20.0497L27.3892 17.5142L34.2401 27H29.9347ZM42.4233 27.2983C40.892 27.2983 39.5696 26.9801 38.456 26.3438C37.349 25.7008 36.4972 24.7926 35.9006 23.6193C35.304 22.4394 35.0057 21.0507 35.0057 19.4531C35.0057 17.8821 35.304 16.5033 35.9006 15.3168C36.5038 14.1236 37.3456 13.1955 38.4261 12.5327C39.5066 11.8632 40.776 11.5284 42.2344 11.5284C43.1757 11.5284 44.0639 11.6809 44.8991 11.9858C45.741 12.2841 46.4834 12.7481 47.1264 13.3778C47.776 14.0076 48.2865 14.8097 48.6577 15.7841C49.0289 16.7519 49.2145 17.9053 49.2145 19.2443V20.348H36.696V17.9219H45.7642C45.7576 17.2325 45.6084 16.6193 45.3168 16.0824C45.0251 15.5388 44.6174 15.1113 44.0938 14.7997C43.5767 14.4882 42.9735 14.3324 42.2841 14.3324C41.5483 14.3324 40.902 14.5114 40.3452 14.8693C39.7884 15.2206 39.3542 15.6847 39.0426 16.2614C38.7377 16.8314 38.5819 17.4579 38.5753 18.1406V20.2585C38.5753 21.1468 38.7377 21.9091 39.0625 22.5455C39.3873 23.1752 39.8414 23.6591 40.4247 23.9972C41.008 24.3286 41.6908 24.4943 42.473 24.4943C42.9967 24.4943 43.4706 24.4214 43.8949 24.2756C44.3191 24.1231 44.687 23.901 44.9986 23.6094C45.3101 23.3177 45.5455 22.9564 45.7045 22.5256L49.0653 22.9034C48.8532 23.7917 48.4489 24.5672 47.8523 25.2301C47.2623 25.8864 46.5066 26.3968 45.5852 26.7614C44.6638 27.1193 43.6098 27.2983 42.4233 27.2983ZM54.0593 32.7273C53.5688 32.7273 53.1147 32.6875 52.6971 32.608C52.2861 32.535 51.958 32.4489 51.7127 32.3494L52.5479 29.5455C53.0716 29.6979 53.5389 29.7708 53.9499 29.7642C54.3609 29.7576 54.7222 29.6283 55.0337 29.3764C55.3519 29.1312 55.6204 28.7202 55.8391 28.1435L56.1474 27.3182L50.609 11.7273H54.4272L57.9471 23.2614H58.1062L61.636 11.7273H65.4641L59.3491 28.8494C59.064 29.6581 58.6862 30.3509 58.2156 30.9276C57.7449 31.5109 57.1682 31.955 56.4854 32.2599C55.8093 32.5715 55.0006 32.7273 54.0593 32.7273ZM78.0522 27L73.7369 11.7273H77.4059L80.0906 22.4659H80.2298L82.9741 11.7273H86.6033L89.3477 22.4062H89.4968L92.1417 11.7273H95.8207L91.4954 27H87.7468L84.8832 16.679H84.6744L81.8107 27H78.0522ZM104.658 27.2983C103.126 27.2983 101.804 26.9801 100.69 26.3438C99.5833 25.7008 98.7315 24.7926 98.1349 23.6193C97.5384 22.4394 97.2401 21.0507 97.2401 19.4531C97.2401 17.8821 97.5384 16.5033 98.1349 15.3168C98.7382 14.1236 99.58 13.1955 100.661 12.5327C101.741 11.8632 103.01 11.5284 104.469 11.5284C105.41 11.5284 106.298 11.6809 107.134 11.9858C107.975 12.2841 108.718 12.7481 109.361 13.3778C110.01 14.0076 110.521 14.8097 110.892 15.7841C111.263 16.7519 111.449 17.9053 111.449 19.2443V20.348H98.9304V17.9219H107.999C107.992 17.2325 107.843 16.6193 107.551 16.0824C107.259 15.5388 106.852 15.1113 106.328 14.7997C105.811 14.4882 105.208 14.3324 104.518 14.3324C103.783 14.3324 103.136 14.5114 102.58 14.8693C102.023 15.2206 101.589 15.6847 101.277 16.2614C100.972 16.8314 100.816 17.4579 100.81 18.1406V20.2585C100.81 21.1468 100.972 21.9091 101.297 22.5455C101.622 23.1752 102.076 23.6591 102.659 23.9972C103.242 24.3286 103.925 24.4943 104.707 24.4943C105.231 24.4943 105.705 24.4214 106.129 24.2756C106.554 24.1231 106.921 23.901 107.233 23.6094C107.545 23.3177 107.78 22.9564 107.939 22.5256L111.3 22.9034C111.088 23.7917 110.683 24.5672 110.087 25.2301C109.497 25.8864 108.741 26.3968 107.82 26.7614C106.898 27.1193 105.844 27.2983 104.658 27.2983ZM118.889 27.3082C117.921 27.3082 117.049 27.1359 116.274 26.7912C115.505 26.4399 114.895 25.9228 114.444 25.2401C114 24.5573 113.778 23.7154 113.778 22.7145C113.778 21.8527 113.937 21.1402 114.255 20.5767C114.574 20.0133 115.008 19.5625 115.558 19.2244C116.108 18.8864 116.728 18.6312 117.417 18.4588C118.113 18.2798 118.833 18.1506 119.575 18.071C120.47 17.9782 121.196 17.8954 121.752 17.8224C122.309 17.7429 122.714 17.6236 122.966 17.4645C123.224 17.2988 123.353 17.0436 123.353 16.6989V16.6392C123.353 15.8902 123.131 15.3101 122.687 14.8991C122.243 14.4882 121.603 14.2827 120.768 14.2827C119.886 14.2827 119.187 14.4749 118.67 14.8594C118.16 15.2438 117.815 15.6979 117.636 16.2216L114.275 15.7443C114.54 14.8163 114.978 14.0407 115.588 13.4176C116.198 12.7879 116.943 12.3172 117.825 12.0057C118.707 11.6875 119.681 11.5284 120.748 11.5284C121.484 11.5284 122.217 11.6146 122.946 11.7869C123.675 11.9593 124.341 12.2443 124.944 12.642C125.547 13.0331 126.031 13.5668 126.396 14.2429C126.767 14.919 126.953 15.7642 126.953 16.7784V27H123.493V24.902H123.373C123.154 25.3262 122.846 25.724 122.449 26.0952C122.057 26.4598 121.564 26.7547 120.967 26.9801C120.377 27.1989 119.684 27.3082 118.889 27.3082ZM119.824 24.6634C120.546 24.6634 121.172 24.5208 121.703 24.2358C122.233 23.9441 122.641 23.5597 122.926 23.0824C123.217 22.6051 123.363 22.0848 123.363 21.5213V19.7216C123.251 19.8144 123.058 19.9006 122.787 19.9801C122.521 20.0597 122.223 20.1293 121.892 20.1889C121.56 20.2486 121.232 20.3016 120.907 20.348C120.583 20.3944 120.301 20.4342 120.062 20.4673C119.525 20.5402 119.045 20.6596 118.62 20.8253C118.196 20.991 117.861 21.223 117.616 21.5213C117.371 21.813 117.248 22.1908 117.248 22.6548C117.248 23.3177 117.49 23.8182 117.974 24.1562C118.458 24.4943 119.074 24.6634 119.824 24.6634ZM138.199 11.7273V14.5114H129.419V11.7273H138.199ZM131.586 8.06818H135.186V22.4062C135.186 22.8902 135.259 23.2614 135.404 23.5199C135.557 23.7718 135.756 23.9441 136.001 24.0369C136.246 24.1297 136.518 24.1761 136.816 24.1761C137.042 24.1761 137.247 24.1596 137.433 24.1264C137.625 24.0933 137.771 24.0634 137.87 24.0369L138.477 26.8509C138.285 26.9171 138.01 26.9901 137.652 27.0696C137.3 27.1491 136.869 27.1955 136.359 27.2088C135.458 27.2353 134.645 27.0994 133.923 26.8011C133.2 26.4962 132.627 26.0256 132.203 25.3892C131.785 24.7528 131.58 23.9574 131.586 23.0028V8.06818ZM145.136 18.0511V27H141.537V6.63636H145.057V14.3224H145.236C145.594 13.4607 146.147 12.7812 146.896 12.2841C147.652 11.7803 148.613 11.5284 149.78 11.5284C150.84 11.5284 151.765 11.7505 152.554 12.1946C153.343 12.6387 153.953 13.2884 154.384 14.1435C154.821 14.9986 155.04 16.0426 155.04 17.2756V27H151.44V17.8324C151.44 16.8049 151.175 16.0062 150.645 15.4361C150.121 14.8594 149.385 14.571 148.438 14.571C147.801 14.571 147.231 14.7102 146.727 14.9886C146.23 15.2604 145.839 15.6548 145.554 16.1719C145.276 16.6889 145.136 17.3153 145.136 18.0511ZM165.47 27.2983C163.939 27.2983 162.616 26.9801 161.503 26.3438C160.396 25.7008 159.544 24.7926 158.947 23.6193C158.351 22.4394 158.053 21.0507 158.053 19.4531C158.053 17.8821 158.351 16.5033 158.947 15.3168C159.551 14.1236 160.393 13.1955 161.473 12.5327C162.554 11.8632 163.823 11.5284 165.281 11.5284C166.223 11.5284 167.111 11.6809 167.946 11.9858C168.788 12.2841 169.53 12.7481 170.173 13.3778C170.823 14.0076 171.333 14.8097 171.705 15.7841C172.076 16.7519 172.261 17.9053 172.261 19.2443V20.348H159.743V17.9219H168.811C168.804 17.2325 168.655 16.6193 168.364 16.0824C168.072 15.5388 167.664 15.1113 167.141 14.7997C166.624 14.4882 166.02 14.3324 165.331 14.3324C164.595 14.3324 163.949 14.5114 163.392 14.8693C162.835 15.2206 162.401 15.6847 162.089 16.2614C161.785 16.8314 161.629 17.4579 161.622 18.1406V20.2585C161.622 21.1468 161.785 21.9091 162.109 22.5455C162.434 23.1752 162.888 23.6591 163.472 23.9972C164.055 24.3286 164.738 24.4943 165.52 24.4943C166.044 24.4943 166.518 24.4214 166.942 24.2756C167.366 24.1231 167.734 23.901 168.045 23.6094C168.357 23.3177 168.592 22.9564 168.751 22.5256L172.112 22.9034C171.9 23.7917 171.496 24.5672 170.899 25.2301C170.309 25.8864 169.554 26.3968 168.632 26.7614C167.711 27.1193 166.657 27.2983 165.47 27.2983ZM175.306 27V11.7273H178.797V14.2727H178.956C179.234 13.3911 179.711 12.7116 180.387 12.2344C181.07 11.7505 181.849 11.5085 182.724 11.5085C182.923 11.5085 183.145 11.5185 183.39 11.5384C183.642 11.5516 183.851 11.5748 184.017 11.608V14.919C183.864 14.866 183.622 14.8196 183.291 14.7798C182.966 14.7334 182.651 14.7102 182.346 14.7102C181.69 14.7102 181.1 14.8527 180.576 15.1378C180.059 15.4162 179.652 15.804 179.353 16.3011C179.055 16.7983 178.906 17.3717 178.906 18.0213V27H175.306Z" fill="white"/>
<path d="M8.5 10.0144C13.1944 10.0144 17 13.82 17 18.5144C17 23.2088 13.1944 27.0144 8.5 27.0144C3.80558 27.0144 0 23.2088 0 18.5144C0 13.82 3.80558 10.0144 8.5 10.0144Z" fill="url(#paint0_linear_208_116)"/>
<defs>
<linearGradient id="paint0_linear_208_116" x1="0" y1="18.5144" x2="17" y2="18.5144" gradientUnits="userSpaceOnUse">
<stop stop-color="#FFE600"/>
<stop offset="1" stop-color="#FF7A00"/>
</linearGradient>
</defs>
</svg>
