<svg width="30" height="31" viewBox="0 0 30 31" fill="none" xmlns="http://www.w3.org/2000/svg">
<path fill-rule="evenodd" clip-rule="evenodd" d="M21.4876 19.9703L29.5572 27.9514C29.8409 28.2322 30.0001 28.6128 30 29.0097C29.9999 29.4065 29.8403 29.7871 29.5565 30.0676C29.2727 30.3482 28.8878 30.5057 28.4865 30.5055C28.0852 30.5054 27.7005 30.3476 27.4168 30.0669L19.3472 22.0857C16.9349 23.9337 13.9014 24.8033 10.8638 24.5177C7.82622 24.2321 5.01273 22.8127 2.9957 20.5483C0.978669 18.2839 -0.0903934 15.3445 0.00599421 12.3282C0.102382 9.31187 1.35698 6.44516 3.51456 4.31123C5.67214 2.17731 8.57064 0.936464 11.6204 0.841134C14.6702 0.745803 17.6421 1.80314 19.9316 3.79806C22.2211 5.79297 23.6562 8.57561 23.945 11.5799C24.2338 14.5842 23.3545 17.5844 21.4861 19.9703H21.4876ZM12.0006 21.6036C14.3874 21.6036 16.6765 20.6658 18.3642 18.9966C20.052 17.3273 21.0001 15.0634 21.0001 12.7027C21.0001 10.342 20.052 8.07805 18.3642 6.40881C16.6765 4.73957 14.3874 3.80179 12.0006 3.80179C9.61372 3.80179 7.32464 4.73957 5.63689 6.40881C3.94914 8.07805 3.00098 10.342 3.00098 12.7027C3.00098 15.0634 3.94914 17.3273 5.63689 18.9966C7.32464 20.6658 9.61372 21.6036 12.0006 21.6036V21.6036Z" fill="#1F2E54"/>
</svg>
