<svg width="67" height="49" viewBox="0 0 67 49" fill="none" xmlns="http://www.w3.org/2000/svg">
<path d="M48.3787 24.1803C48.3787 36.9639 37.8028 47.3607 24.7148 47.3607C11.6267 47.3607 1.05078 36.9639 1.05078 24.1803C1.05078 11.3968 11.6267 1 24.7148 1C37.8028 1 48.3787 11.3968 48.3787 24.1803Z" fill="url(#paint0_linear_122_1292)" stroke="url(#paint1_linear_122_1292)" stroke-width="2"/>
<mask id="mask0_122_1292" style="mask-type:alpha" maskUnits="userSpaceOnUse" x="0" y="13" width="50" height="36">
<path d="M49.3787 24.1804C49.3787 37.5348 38.3363 48.3607 24.7148 48.3607C11.0932 48.3607 0.0507812 37.5348 0.0507812 24.1804C0.0507813 10.826 9.21207 13.9345 22.8336 13.9345C36.4551 13.9345 49.3787 10.826 49.3787 24.1804Z" fill="url(#paint2_linear_122_1292)"/>
</mask>
<g mask="url(#mask0_122_1292)">
<g filter="url(#filter0_f_122_1292)">
<path fill-rule="evenodd" clip-rule="evenodd" d="M62.3376 68.4426C62.3376 78.1755 54.2898 86.0656 44.3622 86.0656C44.2925 86.0656 44.2228 86.0652 44.1533 86.0644V86.0656H-18.9698L-18.9692 86.0649C-19.039 86.0657 -19.1089 86.066 -19.1789 86.066C-29.1064 86.066 -37.1543 78.176 -37.1543 68.4431C-37.1543 58.7102 -29.1064 50.8202 -19.1789 50.8202C-10.6217 50.8202 -3.46111 56.6823 -1.64729 64.5338L4.4401 56.9672L23.4606 50.8197H44.1533V50.8209C44.2228 50.8201 44.2925 50.8197 44.3622 50.8197C54.2898 50.8197 62.3376 58.7098 62.3376 68.4426Z" fill="#E18700"/>
</g>
</g>
<mask id="mask1_122_1292" style="mask-type:alpha" maskUnits="userSpaceOnUse" x="16" y="9" width="32" height="25">
<path d="M47.8242 16.4274C47.8242 25.7719 40.8077 33.3471 32.1524 33.3471C23.497 33.3471 16.4805 25.7719 16.4805 16.4274C16.4805 7.08293 22.3017 9.25806 30.957 9.25806C39.6124 9.25806 47.8242 7.08293 47.8242 16.4274Z" fill="url(#paint3_linear_122_1292)"/>
</mask>
<g mask="url(#mask1_122_1292)">
<g filter="url(#filter1_f_122_1292)">
<path fill-rule="evenodd" clip-rule="evenodd" d="M56.0586 47.3991C56.0586 54.2094 50.9449 59.7304 44.6367 59.7304C44.5924 59.7304 44.5482 59.7301 44.504 59.7295V59.7304H4.39458L4.39483 59.73C4.3505 59.7306 4.3061 59.7308 4.26165 59.7308C-2.04647 59.7308 -7.16022 54.2099 -7.16022 47.3995C-7.16022 40.5892 -2.04647 35.0682 4.26165 35.0682C9.69899 35.0682 14.2489 39.1701 15.4015 44.664L19.2696 39.3694L31.3555 35.0678H44.504V35.0686C44.5482 35.068 44.5924 35.0678 44.6367 35.0678C50.9449 35.0678 56.0586 40.5887 56.0586 47.3991Z" fill="#E18700"/>
</g>
</g>
<g filter="url(#filter2_b_122_1292)">
<mask id="path-6-inside-1_122_1292" fill="white">
<path fill-rule="evenodd" clip-rule="evenodd" d="M58.5986 48.3601C58.6306 48.3605 58.6627 48.3607 58.6948 48.3607C63.2536 48.3607 66.9493 44.3707 66.9493 39.4489C66.9493 34.5272 63.2536 30.5372 58.6948 30.5372C58.6627 30.5372 58.6306 30.5374 58.5986 30.5378V30.5372H56.4663C56.5434 29.9273 56.5832 29.3046 56.5832 28.6719C56.5832 21.1175 50.9108 14.9935 43.9135 14.9935C36.9163 14.9935 31.2439 21.1175 31.2439 28.6719C31.2439 29.3847 31.2944 30.0849 31.3917 30.7683C30.7892 30.6171 30.1614 30.5372 29.5162 30.5372C24.9574 30.5372 21.2618 34.5272 21.2618 39.4489C21.2618 44.3707 24.9574 48.3607 29.5162 48.3607C29.5484 48.3607 29.5804 48.3605 29.6125 48.3601L29.6121 48.3607H58.5986V48.3601Z"/>
</mask>
<path fill-rule="evenodd" clip-rule="evenodd" d="M58.5986 48.3601C58.6306 48.3605 58.6627 48.3607 58.6948 48.3607C63.2536 48.3607 66.9493 44.3707 66.9493 39.4489C66.9493 34.5272 63.2536 30.5372 58.6948 30.5372C58.6627 30.5372 58.6306 30.5374 58.5986 30.5378V30.5372H56.4663C56.5434 29.9273 56.5832 29.3046 56.5832 28.6719C56.5832 21.1175 50.9108 14.9935 43.9135 14.9935C36.9163 14.9935 31.2439 21.1175 31.2439 28.6719C31.2439 29.3847 31.2944 30.0849 31.3917 30.7683C30.7892 30.6171 30.1614 30.5372 29.5162 30.5372C24.9574 30.5372 21.2618 34.5272 21.2618 39.4489C21.2618 44.3707 24.9574 48.3607 29.5162 48.3607C29.5484 48.3607 29.5804 48.3605 29.6125 48.3601L29.6121 48.3607H58.5986V48.3601Z" fill="url(#paint4_linear_122_1292)"/>
<path d="M58.5986 48.3601L58.6231 46.3603C58.0885 46.3537 57.5735 46.5615 57.1931 46.9373C56.8127 47.313 56.5986 47.8254 56.5986 48.3601H58.5986ZM58.5986 30.5379H56.5986C56.5986 31.0726 56.8127 31.585 57.1931 31.9608C57.5735 32.3366 58.0886 32.5443 58.6232 32.5377L58.5986 30.5379ZM58.5986 30.5373H60.5986C60.5986 29.4327 59.7031 28.5373 58.5986 28.5373V30.5373ZM56.4663 30.5373L54.482 30.2867C54.4101 30.8563 54.5864 31.4293 54.9661 31.8599C55.3457 32.2906 55.8922 32.5373 56.4663 32.5373V30.5373ZM31.3917 30.7683L30.9051 32.7082C31.5511 32.8703 32.2354 32.7001 32.7303 32.2543C33.2252 31.8085 33.4656 31.1457 33.3717 30.4863L31.3917 30.7683ZM29.6124 48.3601L31.2297 49.5368C31.6749 48.9248 31.7366 48.114 31.3891 47.4417C31.0416 46.7694 30.3444 46.3509 29.5877 46.3603L29.6124 48.3601ZM29.612 48.3607L27.9948 47.1841C27.5521 47.7924 27.4884 48.5977 27.8297 49.2681C28.171 49.9385 28.8597 50.3607 29.612 50.3607V48.3607ZM58.5986 48.3607V50.3607C59.7031 50.3607 60.5986 49.4653 60.5986 48.3607H58.5986ZM58.574 50.36C58.6142 50.3605 58.6544 50.3607 58.6948 50.3607V46.3607C58.6709 46.3607 58.647 46.3606 58.6231 46.3603L58.574 50.36ZM58.6948 50.3607C64.4997 50.3607 68.9492 45.3283 68.9492 39.449H64.9492C64.9492 43.4133 62.0075 46.3607 58.6948 46.3607V50.3607ZM68.9492 39.449C68.9492 33.5697 64.4997 28.5373 58.6948 28.5373V32.5373C62.0075 32.5373 64.9492 35.4847 64.9492 39.449H68.9492ZM58.6948 28.5373C58.6545 28.5373 58.6142 28.5376 58.5739 28.538L58.6232 32.5377C58.647 32.5375 58.6708 32.5373 58.6948 32.5373V28.5373ZM56.5986 30.5373V30.5379H60.5986V30.5373H56.5986ZM56.4663 32.5373H58.5986V28.5373H56.4663V32.5373ZM58.4505 30.7879C58.538 30.095 58.5831 29.3886 58.5831 28.672H54.5831C54.5831 29.2208 54.5486 29.7598 54.482 30.2867L58.4505 30.7879ZM58.5831 28.672C58.5831 20.16 52.1568 12.9935 43.9135 12.9935V16.9935C49.6646 16.9935 54.5831 22.0751 54.5831 28.672H58.5831ZM43.9135 12.9935C35.6701 12.9935 29.2438 20.16 29.2438 28.672H33.2438C33.2438 22.0751 38.1623 16.9935 43.9135 16.9935V12.9935ZM29.2438 28.672C29.2438 29.4794 29.301 30.2737 29.4117 31.0504L33.3717 30.4863C33.2876 29.8961 33.2438 29.2902 33.2438 28.672H29.2438ZM31.8783 28.8284C31.1184 28.6378 30.3272 28.5373 29.5162 28.5373V32.5373C29.9954 32.5373 30.4599 32.5966 30.9051 32.7082L31.8783 28.8284ZM29.5162 28.5373C23.7113 28.5373 19.2617 33.5697 19.2617 39.449H23.2617C23.2617 35.4847 26.2035 32.5373 29.5162 32.5373V28.5373ZM19.2617 39.449C19.2617 45.3283 23.7113 50.3607 29.5162 50.3607V46.3607C26.2035 46.3607 23.2617 43.4133 23.2617 39.449H19.2617ZM29.5162 50.3607C29.5565 50.3607 29.5969 50.3605 29.6372 50.36L29.5877 46.3603C29.5639 46.3606 29.5401 46.3607 29.5162 46.3607V50.3607ZM31.2292 49.5374L31.2297 49.5368L27.9952 47.1835L27.9948 47.1841L31.2292 49.5374ZM58.5986 46.3607H29.612V50.3607H58.5986V46.3607ZM56.5986 48.3601V48.3607H60.5986V48.3601H56.5986Z" fill="url(#paint5_linear_122_1292)" mask="url(#path-6-inside-1_122_1292)"/>
</g>
<defs>
<filter id="filter0_f_122_1292" x="-51.1543" y="36.8197" width="127.492" height="63.2463" filterUnits="userSpaceOnUse" color-interpolation-filters="sRGB">
<feFlood flood-opacity="0" result="BackgroundImageFix"/>
<feBlend mode="normal" in="SourceGraphic" in2="BackgroundImageFix" result="shape"/>
<feGaussianBlur stdDeviation="7" result="effect1_foregroundBlur_122_1292"/>
</filter>
<filter id="filter1_f_122_1292" x="-21.1602" y="21.0677" width="91.2188" height="52.6631" filterUnits="userSpaceOnUse" color-interpolation-filters="sRGB">
<feFlood flood-opacity="0" result="BackgroundImageFix"/>
<feBlend mode="normal" in="SourceGraphic" in2="BackgroundImageFix" result="shape"/>
<feGaussianBlur stdDeviation="7" result="effect1_foregroundBlur_122_1292"/>
</filter>
<filter id="filter2_b_122_1292" x="7.26172" y="0.993469" width="73.6875" height="61.3672" filterUnits="userSpaceOnUse" color-interpolation-filters="sRGB">
<feFlood flood-opacity="0" result="BackgroundImageFix"/>
<feGaussianBlur in="BackgroundImage" stdDeviation="7"/>
<feComposite in2="SourceAlpha" operator="in" result="effect1_backgroundBlur_122_1292"/>
<feBlend mode="normal" in="SourceGraphic" in2="effect1_backgroundBlur_122_1292" result="shape"/>
</filter>
<linearGradient id="paint0_linear_122_1292" x1="24.7148" y1="0" x2="24.7148" y2="48.3607" gradientUnits="userSpaceOnUse">
<stop stop-color="#FFE600"/>
<stop offset="1" stop-color="#FF7A00"/>
</linearGradient>
<linearGradient id="paint1_linear_122_1292" x1="24.7148" y1="0" x2="24.7148" y2="48.3607" gradientUnits="userSpaceOnUse">
<stop stop-color="white"/>
<stop offset="1" stop-color="white" stop-opacity="0"/>
</linearGradient>
<linearGradient id="paint2_linear_122_1292" x1="24.7148" y1="0.00010421" x2="24.7148" y2="48.3607" gradientUnits="userSpaceOnUse">
<stop stop-color="#FFD600"/>
<stop offset="1" stop-color="#FF7A00"/>
</linearGradient>
<linearGradient id="paint3_linear_122_1292" x1="32.1524" y1="-0.492271" x2="32.1524" y2="33.3471" gradientUnits="userSpaceOnUse">
<stop stop-color="#FFD600"/>
<stop offset="1" stop-color="#FF7A00"/>
</linearGradient>
<linearGradient id="paint4_linear_122_1292" x1="46.2305" y1="15.9972" x2="46.2305" y2="52.1309" gradientUnits="userSpaceOnUse">
<stop stop-color="white"/>
<stop offset="1" stop-color="white" stop-opacity="0"/>
</linearGradient>
<linearGradient id="paint5_linear_122_1292" x1="44.1055" y1="14.9935" x2="44.1055" y2="48.3606" gradientUnits="userSpaceOnUse">
<stop stop-color="white"/>
<stop offset="1" stop-color="white" stop-opacity="0"/>
</linearGradient>
</defs>
</svg>
