<svg width="96" height="66" viewBox="0 0 96 66" fill="none" xmlns="http://www.w3.org/2000/svg">
<g id="Group 16">
<path id="Ellipse 4" d="M71.7862 18.0428C71.7862 27.3109 64.0106 34.8801 54.3487 34.8801C44.6867 34.8801 36.9111 27.3109 36.9111 18.0428C36.9111 8.77481 44.6867 1.20557 54.3487 1.20557C64.0106 1.20557 71.7862 8.77481 71.7862 18.0428Z" fill="url(#paint0_linear_121_1152)" stroke="url(#paint1_linear_121_1152)" stroke-width="2"/>
<g id="Mask group">
<mask id="mask0_121_1152" style="mask-type:alpha" maskUnits="userSpaceOnUse" x="35" y="10" width="38" height="26">
<path id="Ellipse 5" d="M72.7862 18.0427C72.7862 27.894 64.5314 35.88 54.3487 35.88C44.1659 35.88 35.9111 27.894 35.9111 18.0427C35.9111 8.19148 42.7596 10.4846 52.9424 10.4846C63.1252 10.4846 72.7862 8.19148 72.7862 18.0427Z" fill="url(#paint2_linear_121_1152)"/>
</mask>
<g mask="url(#mask0_121_1152)">
<g id="Union" filter="url(#filter0_f_121_1152)">
<path fill-rule="evenodd" clip-rule="evenodd" d="M68.8794 63.6933C68.9316 63.6938 68.9838 63.6941 69.0361 63.6941C76.4575 63.6941 82.4737 57.8738 82.4737 50.6941C82.4737 43.5144 76.4575 37.694 69.0361 37.694C68.9838 37.694 68.9316 37.6943 68.8794 37.6949V37.694H60.3132C60.5008 36.6125 60.5984 35.5015 60.5984 34.3683C60.5984 23.3483 51.3643 14.4148 39.9734 14.4148C28.5825 14.4148 19.3484 23.3483 19.3484 34.3683C19.3484 35.5456 19.4538 36.699 19.6559 37.8202C13.1245 38.7047 8.09814 44.1315 8.09814 50.6941C8.09814 57.8738 14.1143 63.6941 21.5357 63.6941C21.588 63.6941 21.6404 63.6938 21.6926 63.6933L21.6919 63.6941H68.8794V63.6933Z" fill="#E18700"/>
</g>
</g>
</g>
<g id="Union_2" filter="url(#filter1_b_121_1152)">
<mask id="path-4-inside-1_121_1152" fill="white">
<path fill-rule="evenodd" clip-rule="evenodd" d="M61.0669 65.2048C61.1188 65.2053 61.1707 65.2056 61.2227 65.2056C68.644 65.2056 74.6602 59.3853 74.6602 52.2056C74.6602 45.0259 68.644 39.2055 61.2227 39.2055C61.1707 39.2055 61.1188 39.2058 61.0669 39.2064V39.2055H57.5951C57.7205 38.3159 57.7853 37.4076 57.7853 36.4847C57.7853 25.4646 48.5512 16.5311 37.1603 16.5311C25.7694 16.5311 16.5352 25.4646 16.5352 36.4847C16.5352 37.5244 16.6175 38.5456 16.7759 39.5425C15.7952 39.3221 14.7732 39.2055 13.7232 39.2055C6.30182 39.2055 0.285645 45.0259 0.285645 52.2056C0.285645 59.3853 6.30182 65.2056 13.7232 65.2056C13.7755 65.2056 13.8279 65.2053 13.8801 65.2048L13.8794 65.2056H61.0669V65.2048Z"/>
</mask>
<path fill-rule="evenodd" clip-rule="evenodd" d="M61.0669 65.2048C61.1188 65.2053 61.1707 65.2056 61.2227 65.2056C68.644 65.2056 74.6602 59.3853 74.6602 52.2056C74.6602 45.0259 68.644 39.2055 61.2227 39.2055C61.1707 39.2055 61.1188 39.2058 61.0669 39.2064V39.2055H57.5951C57.7205 38.3159 57.7853 37.4076 57.7853 36.4847C57.7853 25.4646 48.5512 16.5311 37.1603 16.5311C25.7694 16.5311 16.5352 25.4646 16.5352 36.4847C16.5352 37.5244 16.6175 38.5456 16.7759 39.5425C15.7952 39.3221 14.7732 39.2055 13.7232 39.2055C6.30182 39.2055 0.285645 45.0259 0.285645 52.2056C0.285645 59.3853 6.30182 65.2056 13.7232 65.2056C13.7755 65.2056 13.8279 65.2053 13.8801 65.2048L13.8794 65.2056H61.0669V65.2048Z" fill="url(#paint3_linear_121_1152)"/>
<path d="M61.0669 65.2048L61.0889 63.2049C60.5547 63.199 60.0403 63.4071 59.6605 63.7828C59.2807 64.1585 59.0669 64.6705 59.0669 65.2048H61.0669ZM61.0669 39.2064H59.0669C59.0669 39.7406 59.2807 40.2527 59.6605 40.6284C60.0404 41.0041 60.5547 41.2122 61.0889 41.2063L61.0669 39.2064ZM61.0669 39.2055H63.0669C63.0669 38.101 62.1715 37.2055 61.0669 37.2055V39.2055ZM57.5951 39.2055L55.6147 38.9264C55.5339 39.4999 55.7056 40.0802 56.0855 40.5174C56.4653 40.9545 57.016 41.2055 57.5951 41.2055V39.2055ZM16.7759 39.5425L16.3374 41.4938C16.9843 41.6392 17.6611 41.4545 18.1446 41.0008C18.628 40.5471 18.8552 39.8833 18.7511 39.2285L16.7759 39.5425ZM13.8801 65.2048L15.4315 66.467C15.9211 65.8652 16.0185 65.0345 15.6815 64.3358C15.3444 63.6371 14.6337 63.1963 13.8579 63.2049L13.8801 65.2048ZM13.8794 65.2056L12.328 63.9434C11.8409 64.5421 11.7418 65.3676 12.0732 66.0646C12.4047 66.7616 13.1076 67.2056 13.8794 67.2056V65.2056ZM61.0669 65.2056V67.2056C62.1715 67.2056 63.0669 66.3102 63.0669 65.2056H61.0669ZM61.045 67.2047C61.1041 67.2053 61.1633 67.2056 61.2227 67.2056V63.2056C61.178 63.2056 61.1334 63.2054 61.0889 63.2049L61.045 67.2047ZM61.2227 67.2056C69.6857 67.2056 76.6602 60.5518 76.6602 52.2056H72.6602C72.6602 58.2189 67.6023 63.2056 61.2227 63.2056V67.2056ZM76.6602 52.2056C76.6602 43.8594 69.6857 37.2055 61.2227 37.2055V41.2055C67.6023 41.2055 72.6602 46.1923 72.6602 52.2056H76.6602ZM61.2227 37.2055C61.1634 37.2055 61.1042 37.2059 61.0449 37.2065L61.0889 41.2063C61.1334 41.2058 61.178 41.2055 61.2227 41.2055V37.2055ZM59.0669 39.2055V39.2064H63.0669V39.2055H59.0669ZM57.5951 41.2055H61.0669V37.2055H57.5951V41.2055ZM59.5756 39.4847C59.7139 38.5029 59.7853 37.5013 59.7853 36.4847H55.7853C55.7853 37.3139 55.7271 38.1289 55.6147 38.9264L59.5756 39.4847ZM59.7853 36.4847C59.7853 24.2982 49.5928 14.5311 37.1603 14.5311V18.5311C47.5095 18.5311 55.7853 26.6311 55.7853 36.4847H59.7853ZM37.1603 14.5311C24.7277 14.5311 14.5352 24.2982 14.5352 36.4847H18.5352C18.5352 26.6311 26.811 18.5311 37.1603 18.5311V14.5311ZM14.5352 36.4847C14.5352 37.63 14.6258 38.7562 14.8007 39.8565L18.7511 39.2285C18.6091 38.335 18.5352 37.4188 18.5352 36.4847H14.5352ZM17.2145 37.5912C16.0906 37.3386 14.9216 37.2055 13.7232 37.2055V41.2055C14.6249 41.2055 15.4998 41.3056 16.3374 41.4938L17.2145 37.5912ZM13.7232 37.2055C5.26017 37.2055 -1.71436 43.8594 -1.71436 52.2056H2.28564C2.28564 46.1923 7.34348 41.2055 13.7232 41.2055V37.2055ZM-1.71436 52.2056C-1.71436 60.5518 5.26017 67.2056 13.7232 67.2056V63.2056C7.34348 63.2056 2.28564 58.2189 2.28564 52.2056H-1.71436ZM13.7232 67.2056C13.7829 67.2056 13.8426 67.2053 13.9023 67.2046L13.8579 63.2049C13.8131 63.2054 13.7682 63.2056 13.7232 63.2056V67.2056ZM15.4308 66.4678L15.4315 66.467L12.3287 63.9425L12.328 63.9434L15.4308 66.4678ZM61.0669 63.2056H13.8794V67.2056H61.0669V63.2056ZM59.0669 65.2048V65.2056H63.0669V65.2048H59.0669Z" fill="url(#paint4_linear_121_1152)" mask="url(#path-4-inside-1_121_1152)"/>
</g>
<g id="Union_3" filter="url(#filter2_b_121_1152)">
<mask id="path-6-inside-2_121_1152" fill="white">
<path fill-rule="evenodd" clip-rule="evenodd" d="M85.4613 51.7072C85.499 51.7076 85.5367 51.7078 85.5744 51.7078C90.9377 51.7078 95.2856 47.5015 95.2856 42.3128C95.2856 37.1241 90.9377 32.9178 85.5744 32.9178C85.5367 32.9178 85.499 32.918 85.4613 32.9185V32.9178H82.9528C83.0434 32.2748 83.0902 31.6184 83.0902 30.9513C83.0902 22.9873 76.4168 16.5311 68.1847 16.5311C59.9527 16.5311 53.2793 22.9873 53.2793 30.9513C53.2793 31.7028 53.3387 32.4409 53.4532 33.1614C52.7444 33.0021 52.0057 32.9178 51.2468 32.9178C45.8835 32.9178 41.5356 37.1241 41.5356 42.3128C41.5356 47.5015 45.8835 51.7078 51.2468 51.7078C51.2845 51.7078 51.3222 51.7076 51.3599 51.7072L51.3594 51.7078H85.4613V51.7072Z"/>
</mask>
<path fill-rule="evenodd" clip-rule="evenodd" d="M85.4613 51.7072C85.499 51.7076 85.5367 51.7078 85.5744 51.7078C90.9377 51.7078 95.2856 47.5015 95.2856 42.3128C95.2856 37.1241 90.9377 32.9178 85.5744 32.9178C85.5367 32.9178 85.499 32.918 85.4613 32.9185V32.9178H82.9528C83.0434 32.2748 83.0902 31.6184 83.0902 30.9513C83.0902 22.9873 76.4168 16.5311 68.1847 16.5311C59.9527 16.5311 53.2793 22.9873 53.2793 30.9513C53.2793 31.7028 53.3387 32.4409 53.4532 33.1614C52.7444 33.0021 52.0057 32.9178 51.2468 32.9178C45.8835 32.9178 41.5356 37.1241 41.5356 42.3128C41.5356 47.5015 45.8835 51.7078 51.2468 51.7078C51.2845 51.7078 51.3222 51.7076 51.3599 51.7072L51.3594 51.7078H85.4613V51.7072Z" fill="url(#paint5_linear_121_1152)"/>
<path d="M85.4613 51.7072L85.4834 49.7073C84.9492 49.7014 84.4348 49.9095 84.0549 50.2852C83.6751 50.6609 83.4613 51.1729 83.4613 51.7072H85.4613ZM85.4613 32.9185H83.4613C83.4613 33.4527 83.6751 33.9648 84.0549 34.3405C84.4348 34.7161 84.9492 34.9242 85.4834 34.9183L85.4613 32.9185ZM85.4613 32.9178H87.4613C87.4613 31.8133 86.5659 30.9178 85.4613 30.9178V32.9178ZM82.9528 32.9178L80.9724 32.6387C80.8915 33.2122 81.0632 33.7925 81.4431 34.2296C81.823 34.6668 82.3736 34.9178 82.9528 34.9178V32.9178ZM53.4532 33.1614L53.0146 35.1127C53.6615 35.2581 54.3384 35.0735 54.8219 34.6197C55.3053 34.166 55.5325 33.5022 55.4284 32.8474L53.4532 33.1614ZM51.3599 51.7072L52.9121 52.9684C53.4012 52.3665 53.4982 51.5361 53.161 50.8377C52.8238 50.1393 52.1133 49.6987 51.3378 49.7073L51.3599 51.7072ZM51.3594 51.7078L49.8071 50.4466C49.3206 51.0454 49.2219 51.8707 49.5535 52.5673C49.8851 53.264 50.5878 53.7078 51.3594 53.7078V51.7078ZM85.4613 51.7078V53.7078C86.5659 53.7078 87.4613 52.8124 87.4613 51.7078H85.4613ZM85.4392 53.7071C85.4842 53.7076 85.5293 53.7078 85.5744 53.7078V49.7078C85.5441 49.7078 85.5137 49.7076 85.4834 49.7073L85.4392 53.7071ZM85.5744 53.7078C91.9794 53.7078 97.2856 48.668 97.2856 42.3128H93.2856C93.2856 46.3351 89.8961 49.7078 85.5744 49.7078V53.7078ZM97.2856 42.3128C97.2856 35.9577 91.9794 30.9178 85.5744 30.9178V34.9178C89.8961 34.9178 93.2856 38.2906 93.2856 42.3128H97.2856ZM85.5744 30.9178C85.5293 30.9178 85.4843 30.9181 85.4392 30.9186L85.4834 34.9183C85.5137 34.918 85.544 34.9178 85.5744 34.9178V30.9178ZM83.4613 32.9178V32.9185H87.4613V32.9178H83.4613ZM82.9528 34.9178H85.4613V30.9178H82.9528V34.9178ZM84.9332 33.197C85.0368 32.4618 85.0902 31.7121 85.0902 30.9513H81.0902C81.0902 31.5247 81.05 32.0879 80.9724 32.6387L84.9332 33.197ZM85.0902 30.9513C85.0902 21.8208 77.4585 14.5311 68.1847 14.5311V18.5311C75.3752 18.5311 81.0902 24.1537 81.0902 30.9513H85.0902ZM68.1847 14.5311C58.911 14.5311 51.2793 21.8208 51.2793 30.9513H55.2793C55.2793 24.1537 60.9943 18.5311 68.1847 18.5311V14.5311ZM51.2793 30.9513C51.2793 31.8084 51.347 32.6515 51.478 33.4754L55.4284 32.8474C55.3303 32.2303 55.2793 31.5972 55.2793 30.9513H51.2793ZM53.8918 31.2101C53.0398 31.0186 52.1541 30.9178 51.2468 30.9178V34.9178C51.8574 34.9178 52.449 34.9856 53.0146 35.1127L53.8918 31.2101ZM51.2468 30.9178C44.8418 30.9178 39.5356 35.9577 39.5356 42.3128H43.5356C43.5356 38.2906 46.9251 34.9178 51.2468 34.9178V30.9178ZM39.5356 42.3128C39.5356 48.668 44.8418 53.7078 51.2468 53.7078V49.7078C46.9251 49.7078 43.5356 46.3351 43.5356 42.3128H39.5356ZM51.2468 53.7078C51.2919 53.7078 51.337 53.7076 51.382 53.7071L51.3378 49.7073C51.3075 49.7076 51.2771 49.7078 51.2468 49.7078V53.7078ZM52.9116 52.969L52.9121 52.9684L49.8077 50.446L49.8071 50.4466L52.9116 52.969ZM85.4613 49.7078H51.3594V53.7078H85.4613V49.7078ZM83.4613 51.7072V51.7078H87.4613V51.7072H83.4613Z" fill="url(#paint6_linear_121_1152)" mask="url(#path-6-inside-2_121_1152)"/>
</g>
</g>
<defs>
<filter id="filter0_f_121_1152" x="-5.90186" y="0.414795" width="102.375" height="77.2793" filterUnits="userSpaceOnUse" color-interpolation-filters="sRGB">
<feFlood flood-opacity="0" result="BackgroundImageFix"/>
<feBlend mode="normal" in="SourceGraphic" in2="BackgroundImageFix" result="shape"/>
<feGaussianBlur stdDeviation="7" result="effect1_foregroundBlur_121_1152"/>
</filter>
<filter id="filter1_b_121_1152" x="-13.7144" y="2.53113" width="102.375" height="76.6744" filterUnits="userSpaceOnUse" color-interpolation-filters="sRGB">
<feFlood flood-opacity="0" result="BackgroundImageFix"/>
<feGaussianBlur in="BackgroundImage" stdDeviation="7"/>
<feComposite in2="SourceAlpha" operator="in" result="effect1_backgroundBlur_121_1152"/>
<feBlend mode="normal" in="SourceGraphic" in2="effect1_backgroundBlur_121_1152" result="shape"/>
</filter>
<filter id="filter2_b_121_1152" x="27.5356" y="2.53113" width="81.75" height="63.1766" filterUnits="userSpaceOnUse" color-interpolation-filters="sRGB">
<feFlood flood-opacity="0" result="BackgroundImageFix"/>
<feGaussianBlur in="BackgroundImage" stdDeviation="7"/>
<feComposite in2="SourceAlpha" operator="in" result="effect1_backgroundBlur_121_1152"/>
<feBlend mode="normal" in="SourceGraphic" in2="effect1_backgroundBlur_121_1152" result="shape"/>
</filter>
<linearGradient id="paint0_linear_121_1152" x1="54.3487" y1="0.205566" x2="54.3487" y2="35.8801" gradientUnits="userSpaceOnUse">
<stop stop-color="#FFE600"/>
<stop offset="1" stop-color="#FF7A00"/>
</linearGradient>
<linearGradient id="paint1_linear_121_1152" x1="54.3487" y1="0.205566" x2="54.3487" y2="35.8801" gradientUnits="userSpaceOnUse">
<stop stop-color="white"/>
<stop offset="1" stop-color="white" stop-opacity="0"/>
</linearGradient>
<linearGradient id="paint2_linear_121_1152" x1="54.3487" y1="0.205456" x2="54.3487" y2="35.88" gradientUnits="userSpaceOnUse">
<stop stop-color="#FFD600"/>
<stop offset="1" stop-color="#FF7A00"/>
</linearGradient>
<linearGradient id="paint3_linear_121_1152" x1="37.4729" y1="0.961328" x2="37.4729" y2="72.008" gradientUnits="userSpaceOnUse">
<stop stop-color="white"/>
<stop offset="1" stop-color="white" stop-opacity="0"/>
</linearGradient>
<linearGradient id="paint4_linear_121_1152" x1="37.4729" y1="16.5311" x2="37.4729" y2="65.2057" gradientUnits="userSpaceOnUse">
<stop stop-color="white"/>
<stop offset="1" stop-color="white" stop-opacity="0"/>
</linearGradient>
<linearGradient id="paint5_linear_121_1152" x1="70.9106" y1="17.5893" x2="70.9106" y2="55.6825" gradientUnits="userSpaceOnUse">
<stop stop-color="white"/>
<stop offset="1" stop-color="white" stop-opacity="0"/>
</linearGradient>
<linearGradient id="paint6_linear_121_1152" x1="68.4106" y1="16.5311" x2="68.4106" y2="51.7078" gradientUnits="userSpaceOnUse">
<stop stop-color="white"/>
<stop offset="1" stop-color="white" stop-opacity="0"/>
</linearGradient>
</defs>
</svg>
